<?xml version="1.0" encoding="utf-8"?>
<svg version="1.1" xmlns:xlink="http://www.w3.org/1999/xlink" width="12px" height="12px" viewBox="230 650  12 12" xmlns="http://www.w3.org/2000/svg">
  <path d="M 236 650  C 239.36 650  242 652.64  242 656  C 242 659.36  239.36 662  236 662  C 232.64 662  230 659.36  230 656  C 230 652.64  232.64 650  236 650  Z " fill-rule="nonzero" fill="#ffffff" stroke="none" fill-opacity="0" />
  <path d="M 236 650.5  C 239.08 650.5  241.5 652.92  241.5 656  C 241.5 659.08  239.08 661.5  236 661.5  C 232.92 661.5  230.5 659.08  230.5 656  C 230.5 652.92  232.92 650.5  236 650.5  Z " stroke-width="1" stroke="#000000" fill="none" />
  <path d="M 236 659  C 234.32 659  233 657.68  233 656  C 233 654.32  234.32 653  236 653  C 237.68 653  239 654.32  239 656  C 239 657.68  237.68 659  236 659  " fill-rule="nonzero" fill="#000000" stroke="none" />
</svg>