<?xml version="1.0" encoding="utf-8"?>
<svg version="1.1" xmlns:xlink="http://www.w3.org/1999/xlink" width="75px" height="75px" xmlns="http://www.w3.org/2000/svg">
  <g transform="matrix(1 0 0 1 -110 -520 )">
    <path d="M 147.5 520  C 168.5 520  185 536.5  185 557.5  C 185 578.5  168.5 595  147.5 595  C 126.5 595  110 578.5  110 557.5  C 110 536.5  126.5 520  147.5 520  Z " fill-rule="nonzero" fill="#ffffff" stroke="none" />
    <path d="M 147.5 520.5  C 168.22 520.5  184.5 536.78  184.5 557.5  C 184.5 578.22  168.22 594.5  147.5 594.5  C 126.78 594.5  110.5 578.22  110.5 557.5  C 110.5 536.78  126.78 520.5  147.5 520.5  Z " stroke-width="1" stroke="#000000" fill="none" />
  </g>
</svg>