<?xml version="1.0" encoding="utf-8"?>
<svg version="1.1" xmlns:xlink="http://www.w3.org/1999/xlink" width="70px" height="70px" xmlns="http://www.w3.org/2000/svg">
  <g transform="matrix(1 0 0 1 -190 -475 )">
    <path d="M 225 475  C 244.6 475  260 490.4  260 510  C 260 529.6  244.6 545  225 545  C 205.4 545  190 529.6  190 510  C 190 490.4  205.4 475  225 475  Z " fill-rule="nonzero" fill="#ffffff" stroke="none" />
    <path d="M 225 475.5  C 244.32 475.5  259.5 490.68  259.5 510  C 259.5 529.32  244.32 544.5  225 544.5  C 205.68 544.5  190.5 529.32  190.5 510  C 190.5 490.68  205.68 475.5  225 475.5  Z " stroke-width="1" stroke="#000000" fill="none" />
  </g>
</svg>