<?xml version="1.0" encoding="utf-8"?>
<svg version="1.1" xmlns:xlink="http://www.w3.org/1999/xlink" width="12px" height="12px" viewBox="235 643  12 12" xmlns="http://www.w3.org/2000/svg">
  <path d="M 241 643  C 244.36 643  247 645.64  247 649  C 247 652.36  244.36 655  241 655  C 237.64 655  235 652.36  235 649  C 235 645.64  237.64 643  241 643  Z " fill-rule="nonzero" fill="#f0f0f0" stroke="none" />
  <path d="M 241 643.5  C 244.08 643.5  246.5 645.92  246.5 649  C 246.5 652.08  244.08 654.5  241 654.5  C 237.92 654.5  235.5 652.08  235.5 649  C 235.5 645.92  237.92 643.5  241 643.5  Z " stroke-width="1" stroke="#000000" fill="none" />
  <path d="M 241 652  C 239.32 652  238 650.68  238 649  C 238 647.32  239.32 646  241 646  C 242.68 646  244 647.32  244 649  C 244 650.68  242.68 652  241 652  " fill-rule="nonzero" fill="#000000" stroke="none" />
</svg>