<?xml version="1.0" encoding="utf-8"?>
<svg version="1.1" xmlns:xlink="http://www.w3.org/1999/xlink" width="12px" height="12px" viewBox="355 643  12 12" xmlns="http://www.w3.org/2000/svg">
  <path d="M 361 643  C 364.36 643  367 645.64  367 649  C 367 652.36  364.36 655  361 655  C 357.64 655  355 652.36  355 649  C 355 645.64  357.64 643  361 643  Z " fill-rule="nonzero" fill="#f0f0f0" stroke="none" />
  <path d="M 361 643.5  C 364.08 643.5  366.5 645.92  366.5 649  C 366.5 652.08  364.08 654.5  361 654.5  C 357.92 654.5  355.5 652.08  355.5 649  C 355.5 645.92  357.92 643.5  361 643.5  Z " stroke-width="1" stroke="#000000" fill="none" />
  <path d="M 361 652  C 359.32 652  358 650.68  358 649  C 358 647.32  359.32 646  361 646  C 362.68 646  364 647.32  364 649  C 364 650.68  362.68 652  361 652  " fill-rule="nonzero" fill="#000000" stroke="none" />
</svg>