<?xml version="1.0" encoding="utf-8"?>
<svg version="1.1" xmlns:xlink="http://www.w3.org/1999/xlink" width="12px" height="12px" viewBox="266 555  12 12" xmlns="http://www.w3.org/2000/svg">
  <path d="M 272 555  C 275.36 555  278 557.64  278 561  C 278 564.36  275.36 567  272 567  C 268.64 567  266 564.36  266 561  C 266 557.64  268.64 555  272 555  Z " fill-rule="nonzero" fill="#ffffff" stroke="none" fill-opacity="0" />
  <path d="M 272 555.5  C 275.08 555.5  277.5 557.92  277.5 561  C 277.5 564.08  275.08 566.5  272 566.5  C 268.92 566.5  266.5 564.08  266.5 561  C 266.5 557.92  268.92 555.5  272 555.5  Z " stroke-width="1" stroke="#000000" fill="none" />
  <path d="M 272 564  C 270.32 564  269 562.68  269 561  C 269 559.32  270.32 558  272 558  C 273.68 558  275 559.32  275 561  C 275 562.68  273.68 564  272 564  " fill-rule="nonzero" fill="#000000" stroke="none" />
</svg>