<?xml version="1.0" encoding="utf-8"?>
<svg version="1.1" xmlns:xlink="http://www.w3.org/1999/xlink" width="12px" height="12px" viewBox="166 555  12 12" xmlns="http://www.w3.org/2000/svg">
  <path d="M 172 555  C 175.36 555  178 557.64  178 561  C 178 564.36  175.36 567  172 567  C 168.64 567  166 564.36  166 561  C 166 557.64  168.64 555  172 555  Z " fill-rule="nonzero" fill="#f0f0f0" stroke="none" />
  <path d="M 172 555.5  C 175.08 555.5  177.5 557.92  177.5 561  C 177.5 564.08  175.08 566.5  172 566.5  C 168.92 566.5  166.5 564.08  166.5 561  C 166.5 557.92  168.92 555.5  172 555.5  Z " stroke-width="1" stroke="#000000" fill="none" />
  <path d="M 172 564  C 170.32 564  169 562.68  169 561  C 169 559.32  170.32 558  172 558  C 173.68 558  175 559.32  175 561  C 175 562.68  173.68 564  172 564  " fill-rule="nonzero" fill="#000000" stroke="none" />
</svg>