<?xml version="1.0" encoding="utf-8"?>
<svg version="1.1" xmlns:xlink="http://www.w3.org/1999/xlink" width="12px" height="12px" viewBox="125 660  12 12" xmlns="http://www.w3.org/2000/svg">
  <path d="M 131 660  C 134.36 660  137 662.64  137 666  C 137 669.36  134.36 672  131 672  C 127.64 672  125 669.36  125 666  C 125 662.64  127.64 660  131 660  Z " fill-rule="nonzero" fill="#ffffff" stroke="none" />
  <path d="M 131 660.5  C 134.08 660.5  136.5 662.92  136.5 666  C 136.5 669.08  134.08 671.5  131 671.5  C 127.92 671.5  125.5 669.08  125.5 666  C 125.5 662.92  127.92 660.5  131 660.5  Z " stroke-width="1" stroke="#000000" fill="none" />
  <path d="M 131 669  C 129.32 669  128 667.68  128 666  C 128 664.32  129.32 663  131 663  C 132.68 663  134 664.32  134 666  C 134 667.68  132.68 669  131 669  " fill-rule="nonzero" fill="#000000" stroke="none" />
</svg>