<?xml version="1.0" encoding="utf-8"?>
<svg version="1.1" xmlns:xlink="http://www.w3.org/1999/xlink" width="12px" height="12px" viewBox="365 660  12 12" xmlns="http://www.w3.org/2000/svg">
  <path d="M 371 660  C 374.36 660  377 662.64  377 666  C 377 669.36  374.36 672  371 672  C 367.64 672  365 669.36  365 666  C 365 662.64  367.64 660  371 660  Z " fill-rule="nonzero" fill="#f0f0f0" stroke="none" />
  <path d="M 371 660.5  C 374.08 660.5  376.5 662.92  376.5 666  C 376.5 669.08  374.08 671.5  371 671.5  C 367.92 671.5  365.5 669.08  365.5 666  C 365.5 662.92  367.92 660.5  371 660.5  Z " stroke-width="1" stroke="#000000" fill="none" />
  <path d="M 371 669  C 369.32 669  368 667.68  368 666  C 368 664.32  369.32 663  371 663  C 372.68 663  374 664.32  374 666  C 374 667.68  372.68 669  371 669  " fill-rule="nonzero" fill="#000000" stroke="none" />
</svg>